<svg width="42" height="34" viewBox="0 0 42 34" fill="none" xmlns="http://www.w3.org/2000/svg">
<g clip-path="url(#clip0_2_7)">
<path fill-rule="evenodd" clip-rule="evenodd" d="M8.72353 0C6.32707 0 4.5538 2.13103 4.63321 4.44208C4.70941 6.66238 4.6104 9.53798 3.89788 11.883C3.18281 14.2347 1.97433 15.7249 0 15.9162V18.0757C1.97433 18.2674 3.18281 19.7569 3.8978 22.1088C4.6104 24.4539 4.70933 27.3295 4.63312 29.5498C4.55372 31.8605 6.32699 33.9919 8.72386 33.9919H33.2797C35.6761 33.9919 37.4491 31.8608 37.3697 29.5498C37.2935 27.3295 37.3925 24.4539 38.105 22.1088C38.8201 19.7569 40.0256 18.2668 42 18.0757V15.9162C40.0257 15.7245 38.8201 14.235 38.105 11.883C37.3924 9.53831 37.2935 6.66238 37.3697 4.44208C37.4491 2.13137 35.6761 0 33.2797 0H8.7232H8.72353ZM28.4746 20.9242C28.4746 24.1064 26.1383 26.0364 22.2611 26.0364H15.661C15.4722 26.0364 15.2911 25.9602 15.1576 25.8245C15.0241 25.6889 14.9491 25.5049 14.9491 25.3131V8.67882C14.9491 8.487 15.0241 8.30305 15.1576 8.16741C15.2911 8.03178 15.4722 7.95558 15.661 7.95558H22.2235C25.4564 7.95558 27.5782 9.73475 27.5782 12.4663C27.5782 14.3836 26.1508 16.1 24.3324 16.4007V16.5007C26.8078 16.7766 28.4746 18.5184 28.4746 20.9242ZM21.5414 10.2482H17.7781V15.6487H20.9477C23.398 15.6487 24.7491 14.6463 24.7491 12.8545C24.7488 11.1754 23.5873 10.2482 21.5414 10.2482ZM17.7781 17.7915V23.743H21.6799C24.231 23.743 25.5823 22.703 25.5823 20.7485C25.5823 18.7939 24.1931 17.7912 21.5158 17.7912H17.7781V17.7915Z" fill="#7952B3"/>
</g>
<defs>
<clipPath id="clip0_2_7">
<rect width="42" height="34" fill="white"/>
</clipPath>
</defs>
</svg>
