<svg width="21" height="32" viewBox="0 0 21 32" fill="none" xmlns="http://www.w3.org/2000/svg">
<g clip-path="url(#clip0_2_12)">
<path d="M5.25106 32C8.14848 32 10.5 29.6107 10.5 26.6667V21.3334H5.25106C2.35364 21.3334 0.00210571 23.7227 0.00210571 26.6667C0.00210571 29.6107 2.35364 32 5.25106 32Z" fill="#0ACF83"/>
<path d="M0.00210571 15.9999C0.00210571 13.0559 2.35364 10.6666 5.25106 10.6666H10.5V21.3333H5.25106C2.35364 21.3333 0.00210571 18.9439 0.00210571 15.9999Z" fill="#A259FF"/>
<path d="M0.00343323 5.33337C0.00343323 2.38937 2.35496 3.43323e-05 5.25238 3.43323e-05H10.5013V10.6667H5.25238C2.35496 10.6667 0.00343323 8.27737 0.00343323 5.33337Z" fill="#F24E1E"/>
<path d="M10.5 3.43323e-05H15.749C18.6464 3.43323e-05 20.9979 2.38937 20.9979 5.33337C20.9979 8.27737 18.6464 10.6667 15.749 10.6667H10.5V3.43323e-05Z" fill="#FF7262"/>
<path d="M20.9979 15.9999C20.9979 18.9439 18.6464 21.3333 15.749 21.3333C12.8515 21.3333 10.5 18.9439 10.5 15.9999C10.5 13.0559 12.8515 10.6666 15.749 10.6666C18.6464 10.6666 20.9979 13.0559 20.9979 15.9999Z" fill="#1ABCFE"/>
</g>
<defs>
<clipPath id="clip0_2_12">
<rect width="21" height="32" fill="white"/>
</clipPath>
</defs>
</svg>
