<svg width="46" height="46" viewBox="0 0 46 46" fill="none" xmlns="http://www.w3.org/2000/svg">
<mask id="mask0_2_36" style="mask-type:luminance" maskUnits="userSpaceOnUse" x="-1" y="0" width="47" height="46">
<path d="M45.9975 -8.39233e-05H-0.00250244V45.9999H45.9975V-8.39233e-05Z" fill="white"/>
</mask>
<g mask="url(#mask0_2_36)">
<mask id="mask1_2_36" style="mask-type:luminance" maskUnits="userSpaceOnUse" x="-1" y="0" width="47" height="47">
<path d="M-0.00360107 0.0572929H45.9363V46.0003H-0.00360107V0.0572929Z" fill="white"/>
</mask>
<g mask="url(#mask1_2_36)">
<path d="M45.0764 20.9823L25.0164 0.924282C24.7364 0.649282 24.4165 0.431284 24.0565 0.282284C23.6965 0.133284 23.3064 0.0572929 22.9164 0.0572929C22.5364 0.0572929 22.1464 0.133284 21.7864 0.282284C21.4264 0.431284 21.1064 0.649282 20.8264 0.924282L16.6664 5.09028L21.9464 10.3733C22.5664 10.1623 23.2364 10.1293 23.8764 10.2783C24.5164 10.4273 25.0963 10.7513 25.5663 11.2153C26.0263 11.6823 26.3564 12.2713 26.5064 12.9143C26.6464 13.5583 26.6164 14.2303 26.3964 14.8533L31.4864 19.9453C32.1164 19.7293 32.7865 19.6923 33.4265 19.8403C34.0765 19.9883 34.6664 20.3143 35.1264 20.7813C35.4564 21.1083 35.7164 21.4963 35.8964 21.9243C36.0664 22.3513 36.1564 22.8083 36.1564 23.2713C36.1564 23.7333 36.0664 24.1913 35.8964 24.6183C35.7164 25.0453 35.4564 25.4333 35.1264 25.7603C34.4664 26.4203 33.5764 26.7913 32.6364 26.7913C31.7064 26.7913 30.8064 26.4203 30.1464 25.7603C29.6564 25.2683 29.3163 24.6423 29.1863 23.9613C29.0463 23.2793 29.1164 22.5733 29.3864 21.9303L24.6364 17.1813V29.6803C25.1364 29.9283 25.5664 30.2913 25.9064 30.7413C26.2364 31.1903 26.4565 31.7123 26.5465 32.2643C26.6365 32.8153 26.5965 33.3813 26.4265 33.9133C26.2565 34.4463 25.9563 34.9303 25.5663 35.3253C25.2363 35.6523 24.8464 35.9113 24.4164 36.0883C23.9964 36.2653 23.5364 36.3563 23.0764 36.3563C22.6064 36.3563 22.1564 36.2653 21.7264 36.0883C21.2964 35.9113 20.9064 35.6523 20.5864 35.3253C20.2564 34.9983 19.9963 34.6103 19.8163 34.1833C19.6463 33.7563 19.5565 33.2983 19.5565 32.8353C19.5565 32.3733 19.6463 31.9153 19.8163 31.4883C19.9963 31.0613 20.2564 30.6733 20.5864 30.3463C20.9164 30.0163 21.3064 29.7543 21.7364 29.5763V16.9633C21.3064 16.7863 20.9164 16.5263 20.5864 16.1983C20.2564 15.8703 19.9964 15.4803 19.8264 15.0513C19.6464 14.6223 19.5565 14.1633 19.5565 13.6983C19.5565 13.2343 19.6464 12.7743 19.8264 12.3463L14.6164 7.13629L0.856384 20.8883C0.306384 21.4443 -0.00360107 22.1973 -0.00360107 22.9813C-0.00360107 23.7663 0.306384 24.5193 0.856384 25.0743L20.9265 45.1353C21.4765 45.6893 22.2264 46.0003 23.0164 46.0003C23.7964 46.0003 24.5564 45.6893 25.1064 45.1353L45.0764 25.1683C45.6264 24.6133 45.9363 23.8603 45.9363 23.0753C45.9363 22.2913 45.6264 21.5383 45.0764 20.9823Z" fill="#F03C2E"/>
</g>
</g>
</svg>
