<svg width="39" height="39" viewBox="0 0 39 39" fill="none" xmlns="http://www.w3.org/2000/svg">
<rect width="39" height="39" rx="10" fill="#F0DB4F"/>
<g clip-path="url(#clip0_2_21)">
<path d="M3.49664 3.76532H35.2346V35.5032H3.49664V3.76532Z" fill="#F0DB4F"/>
<path d="M32.637 27.9337C32.4047 26.4856 31.4604 25.2698 28.6637 24.1354C27.6922 23.6889 26.6092 23.3692 26.2864 22.633C26.1717 22.2046 26.1566 21.9632 26.229 21.7038C26.4372 20.8621 27.4418 20.5996 28.2383 20.841C28.7512 21.0129 29.2369 21.4082 29.5295 22.0387C30.8992 21.1517 30.8962 21.1577 31.8526 20.5483C31.5026 20.0053 31.3156 19.7549 31.0863 19.5226C30.2627 18.6024 29.1404 18.1288 27.3453 18.165C27.0346 18.2042 26.7208 18.2464 26.4101 18.2857C25.5141 18.5119 24.6603 18.9826 24.1594 19.6131C22.657 21.3177 23.0854 24.3014 24.9137 25.5293C26.7148 26.8808 29.3606 27.1886 29.6985 28.4527C30.0273 30.0003 28.5611 30.5011 27.104 30.3231C26.0299 30.0999 25.4326 29.5538 24.787 28.5613C23.5983 29.2491 23.5983 29.2491 22.3765 29.9521C22.6661 30.5856 22.9708 30.8722 23.4565 31.4213C25.7554 33.7534 31.5086 33.6387 32.5405 30.1089C32.5827 29.9882 32.8603 29.1797 32.637 27.9337ZM20.7503 18.352H17.7817C17.7817 20.9164 17.7697 23.4627 17.7697 26.027C17.7697 27.6592 17.8541 29.1556 17.5886 29.6141C17.1542 30.5162 16.0289 30.4046 15.516 30.2296C14.9941 29.9731 14.7286 29.6081 14.4209 29.0922C14.3364 28.9444 14.2731 28.8297 14.2519 28.8207C13.4464 29.3124 12.6439 29.8072 11.8384 30.299C12.2397 31.1226 12.8309 31.8376 13.5882 32.3022C14.7195 32.981 16.24 33.1891 17.83 32.8241C18.8648 32.5224 19.7578 31.8979 20.2254 30.9476C20.9012 29.7016 20.7564 28.1932 20.7503 26.5248C20.7654 23.8036 20.7503 21.0823 20.7503 18.352Z" fill="#323330"/>
</g>
<defs>
<clipPath id="clip0_2_21">
<rect width="31.7379" height="31.7379" fill="white" transform="translate(3.49664 3.76532)"/>
</clipPath>
</defs>
</svg>
