<svg width="170" height="30" viewBox="0 0 170 30" fill="none" xmlns="http://www.w3.org/2000/svg">
<path d="M0.184 13.92C0.968 13.888 1.544 13.72 1.912 13.416C2.28 13.096 2.464 12.648 2.464 12.072C2.464 11.64 2.384 10.784 2.224 9.504C2.208 9.376 2.16 8.968 2.08 8.28C2 7.576 1.96 6.944 1.96 6.384C1.96 5.024 2.376 3.968 3.208 3.216C4.04 2.448 5.152 2.064 6.544 2.064H8.272V5.424H7.336C6.824 5.424 6.456 5.536 6.232 5.76C6.008 5.984 5.896 6.328 5.896 6.792C5.896 7.144 5.96 7.944 6.088 9.192C6.232 10.744 6.304 11.76 6.304 12.24C6.304 13.12 6.088 13.848 5.656 14.424C5.24 15 4.6 15.368 3.736 15.528V15.576C4.6 15.752 5.24 16.128 5.656 16.704C6.088 17.264 6.304 17.992 6.304 18.888C6.304 19.368 6.232 20.384 6.088 21.936C5.96 23.152 5.896 23.944 5.896 24.312C5.896 24.776 6.008 25.12 6.232 25.344C6.456 25.584 6.824 25.704 7.336 25.704H8.272V29.064H6.544C5.152 29.064 4.04 28.68 3.208 27.912C2.376 27.16 1.96 26.096 1.96 24.72C1.96 24.16 2 23.536 2.08 22.848C2.16 22.144 2.208 21.728 2.224 21.6C2.384 20.32 2.464 19.464 2.464 19.032C2.464 18.488 2.28 18.056 1.912 17.736C1.544 17.4 0.968 17.216 0.184 17.184V13.92ZM169.909 17.184C169.125 17.216 168.549 17.4 168.181 17.736C167.813 18.056 167.629 18.488 167.629 19.032C167.629 19.464 167.709 20.32 167.869 21.6C167.885 21.728 167.933 22.144 168.013 22.848C168.093 23.536 168.133 24.16 168.133 24.72C168.133 26.096 167.717 27.16 166.885 27.912C166.053 28.68 164.941 29.064 163.549 29.064H161.821V25.704H162.757C163.269 25.704 163.637 25.584 163.861 25.344C164.085 25.12 164.197 24.776 164.197 24.312C164.197 23.944 164.133 23.152 164.005 21.936C163.861 20.384 163.789 19.368 163.789 18.888C163.789 17.992 163.997 17.264 164.413 16.704C164.845 16.128 165.493 15.752 166.357 15.576V15.528C165.493 15.368 164.845 15 164.413 14.424C163.997 13.848 163.789 13.12 163.789 12.24C163.789 11.76 163.861 10.744 164.005 9.192C164.133 7.944 164.197 7.144 164.197 6.792C164.197 6.328 164.085 5.984 163.861 5.76C163.637 5.536 163.269 5.424 162.757 5.424H161.821V2.064H163.549C164.941 2.064 166.053 2.448 166.885 3.216C167.717 3.968 168.133 5.024 168.133 6.384C168.133 6.944 168.093 7.576 168.013 8.28C167.933 8.968 167.885 9.376 167.869 9.504C167.709 10.784 167.629 11.64 167.629 12.072C167.629 12.648 167.813 13.096 168.181 13.416C168.549 13.72 169.125 13.888 169.909 13.92V17.184Z" fill="#403E3E"/>
<path d="M20.6545 20.832H26.0305V24H16.5505V7.152H20.6545V20.832ZM32.02 7.152V17.232C32.02 18.24 32.268 19.016 32.764 19.56C33.26 20.104 33.988 20.376 34.948 20.376C35.908 20.376 36.644 20.104 37.156 19.56C37.668 19.016 37.924 18.24 37.924 17.232V7.152H42.028V17.208C42.028 18.712 41.708 19.984 41.068 21.024C40.428 22.064 39.564 22.848 38.476 23.376C37.404 23.904 36.204 24.168 34.876 24.168C33.548 24.168 32.356 23.912 31.3 23.4C30.26 22.872 29.436 22.088 28.828 21.048C28.22 19.992 27.916 18.712 27.916 17.208V7.152H32.02ZM49.0139 7.152V24H44.9099V7.152H49.0139ZM49.7579 3.768L43.9739 6.192V3.36L49.7579 0.575998V3.768ZM58.084 24.168C56.852 24.168 55.748 23.968 54.772 23.568C53.796 23.168 53.012 22.576 52.42 21.792C51.844 21.008 51.54 20.064 51.508 18.96H55.876C55.94 19.584 56.156 20.064 56.524 20.4C56.892 20.72 57.372 20.88 57.964 20.88C58.572 20.88 59.052 20.744 59.404 20.472C59.756 20.184 59.932 19.792 59.932 19.296C59.932 18.88 59.788 18.536 59.5 18.264C59.228 17.992 58.884 17.768 58.468 17.592C58.068 17.416 57.492 17.216 56.74 16.992C55.652 16.656 54.764 16.32 54.076 15.984C53.388 15.648 52.796 15.152 52.3 14.496C51.804 13.84 51.556 12.984 51.556 11.928C51.556 10.36 52.124 9.136 53.26 8.256C54.396 7.36 55.876 6.912 57.7 6.912C59.556 6.912 61.052 7.36 62.188 8.256C63.324 9.136 63.932 10.368 64.012 11.952H59.572C59.54 11.408 59.34 10.984 58.972 10.68C58.604 10.36 58.132 10.2 57.556 10.2C57.06 10.2 56.66 10.336 56.356 10.608C56.052 10.864 55.9 11.24 55.9 11.736C55.9 12.28 56.156 12.704 56.668 13.008C57.18 13.312 57.98 13.64 59.068 13.992C60.156 14.36 61.036 14.712 61.708 15.048C62.396 15.384 62.988 15.872 63.484 16.512C63.98 17.152 64.228 17.976 64.228 18.984C64.228 19.944 63.98 20.816 63.484 21.6C63.004 22.384 62.3 23.008 61.372 23.472C60.444 23.936 59.348 24.168 58.084 24.168ZM78.1516 7.152C79.9276 7.152 81.4796 7.504 82.8076 8.208C84.1356 8.912 85.1596 9.904 85.8796 11.184C86.6156 12.448 86.9836 13.912 86.9836 15.576C86.9836 17.224 86.6156 18.688 85.8796 19.968C85.1596 21.248 84.1276 22.24 82.7836 22.944C81.4556 23.648 79.9116 24 78.1516 24H71.8396V7.152H78.1516ZM77.8876 20.448C79.4396 20.448 80.6476 20.024 81.5116 19.176C82.3756 18.328 82.8076 17.128 82.8076 15.576C82.8076 14.024 82.3756 12.816 81.5116 11.952C80.6476 11.088 79.4396 10.656 77.8876 10.656H75.9436V20.448H77.8876ZM99.7651 21.024H93.4771L92.4691 24H88.1731L94.2691 7.152H99.0211L105.117 24H100.773L99.7651 21.024ZM98.7091 17.856L96.6211 11.688L94.5571 17.856H98.7091ZM122.044 24H117.94L111.076 13.608V24H106.972V7.152H111.076L117.94 17.592V7.152H122.044V24ZM129.123 7.152V24H125.019V7.152H129.123ZM136.201 10.44V13.848H141.697V17.016H136.201V20.712H142.417V24H132.097V7.152H142.417V10.44H136.201ZM149.186 20.832H154.562V24H145.082V7.152H149.186V20.832Z" fill="#8DDBE0"/>
</svg>
