<svg width="54" height="54" viewBox="0 0 54 54" fill="none" xmlns="http://www.w3.org/2000/svg">
<g clip-path="url(#clip0_2_29)">
<rect x="0.00012207" width="54" height="54" rx="27" fill="#CD6799"/>
<path d="M27.2164 30.4091C26.6091 30.6864 25.9437 31.0478 24.6116 31.7743C24.1066 32.0566 23.5788 32.339 23.0877 32.605C23.0536 32.5711 23.0182 32.5284 22.9841 32.4933C20.3491 29.6951 15.4755 27.7188 15.6825 23.9607C15.7596 22.5917 16.233 18.9979 25.0422 14.6337C32.292 11.0826 38.0608 12.0664 39.057 14.2485C40.4888 17.3591 35.9649 23.1475 28.4777 23.987C27.649 24.154 26.7932 24.1339 25.9735 23.928C25.1537 23.7221 24.391 23.3357 23.7417 22.7975C23.3452 22.3696 23.2859 22.3445 23.1394 22.4298C22.8983 22.5553 23.0536 22.943 23.1394 23.1651C23.425 23.679 23.8114 24.1308 24.2757 24.4937C24.74 24.8567 25.2728 25.1234 25.8427 25.2782C28.7891 25.9111 31.8611 25.6087 34.6253 24.4136C39.163 22.6682 42.7059 17.8159 41.668 13.7478C40.6264 9.62329 33.7377 8.26308 27.2201 10.5644C23.1385 11.9314 19.3675 14.0832 16.1219 16.8974C12.5311 20.2351 11.9629 23.1363 12.1953 24.3509C13.0311 28.6637 19.0133 31.4706 21.4122 33.5499C21.2859 33.6189 21.1799 33.6753 21.0852 33.7293C19.8883 34.3203 15.3252 36.6906 14.1876 39.1977C12.896 42.0386 14.3947 44.0751 15.3846 44.3487C16.8763 44.7038 18.4424 44.5871 19.8642 44.0148C21.2859 43.4425 22.4923 42.4432 23.3149 41.1565C24.0135 40.0895 24.4425 38.8706 24.5653 37.6035C24.6882 36.3364 24.5014 35.0586 24.0207 33.8786C24.3043 33.6538 24.6068 33.4536 24.9248 33.2801C25.5358 32.9212 26.1179 32.5673 26.6343 32.2938C28.4024 31.4707 30.332 31.0469 32.2844 31.0528C36.3828 31.5321 37.1921 34.0731 37.0368 35.1434C36.9642 35.5232 36.8105 35.8831 36.5862 36.1989C36.3619 36.5147 36.0721 36.779 35.7364 36.9742C35.4523 37.1536 35.3576 37.2139 35.3828 37.3419C35.4169 37.5301 35.5545 37.5213 35.7957 37.4874C36.4115 37.294 36.9539 36.92 37.3519 36.4146C37.7499 35.9091 37.9846 35.2958 38.0254 34.6553C38.1517 32.1457 35.7439 29.3927 31.4814 29.4178C30.2051 29.42 28.9415 29.6702 27.7618 30.1544C27.5724 30.2322 27.3885 30.3158 27.21 30.4053L27.2164 30.4091ZM21.1243 40.2455C19.7633 41.7174 17.8694 42.2732 17.0512 41.8027C16.1674 41.3008 16.5171 39.1237 18.1875 37.5665C19.1769 36.6806 20.2462 35.8871 21.3819 35.1962C21.5801 35.0707 21.8731 34.905 22.2253 34.6942C22.2859 34.6604 22.32 34.6428 22.32 34.6428L22.5271 34.5173C22.825 35.51 22.8521 36.5635 22.6056 37.57C22.3591 38.5765 21.8479 39.4999 21.1243 40.2455Z" fill="white"/>
</g>
<defs>
<clipPath id="clip0_2_29">
<rect width="54" height="54" fill="white"/>
</clipPath>
</defs>
</svg>
